<svg xmlns="http://www.w3.org/2000/svg" width="120" height="120" viewBox="0 0 120 120">
  <g transform="translate(60,60) rotate(-6)">
    <rect x="-50" y="-46" width="100" height="92" rx="46" fill="white"/>
    <rect x="-44" y="-40" width="88" height="80" rx="40" fill="#ffe0f0"/>
    <path d="M-30,22 Q-22,28 22,28 Q32,28 32,20 L20,20 Q5,20 -22,20 Z" fill="#ff69b4"/>
    <path d="M-30,20 Q-35,-12 -16,-24 Q0,-34 18,-26 Q26,-22 26,-12 L20,20 Z" fill="#ff8fab"/>
    <path d="M20,20 L26,-12 L32,-12 L30,20 Z" fill="#ff69b4"/>
    <path d="-26,2 Q-22,-18 -10,-26" stroke="white" stroke-width="2.5" fill="none" stroke-linecap="round" opacity="0.6"/>
    <text x="0" y="44" font-size="11" font-family="Arial" font-weight="bold" fill="#c71585" text-anchor="middle">always 👠</text>
  </g>
</svg>
